<?xml version="1.0" encoding="UTF-8"?>
<svg id="Layer_1" xmlns="http://www.w3.org/2000/svg" version="1.1" viewBox="0 0 512 384">
  <!-- Generator: Adobe Illustrator 29.6.0, SVG Export Plug-In . SVG Version: 2.1.1 Build 207)  -->
  <defs>
    <style>
      .st0 {
        opacity: .15;
      }

      .st1 {
        fill: #bb97c6;
      }
    </style>
  </defs>
  <g class="st0">
    <path class="st1" d="M236.43,657.17c-34.51,2.95-65.9,19.69-94.71,47.9h4.83c21.28-19.96,44.13-33.9,68.9-40.37,17.84-4.65,35.78-5.32,53.8-2.97,32.45,4.24,62.28,21.33,91.1,43.34h5.63c-19.78-15.48-40.09-28.94-61.67-37.75-22.28-9.1-44.9-12.11-67.88-10.15Z"/>
    <path class="st1" d="M229.1,679.18c-22.79,3.04-44.51,11.71-65.2,25.89h6.92c53.38-32.32,106.75-29.95,160.1,0h7.46c-17.09-10.43-34.64-18.58-52.91-23-18.69-4.52-37.49-5.41-56.37-2.89Z"/>
    <path class="st1" d="M236.77,700.44c-9.33.7-18.57,2.2-27.71,4.62h26.2c8.66-.5,17.9-.5,26.69,0h27.5c-17.36-4.96-34.98-5.95-52.68-4.62Z"/>
    <path class="st1" d="M278.14,635.59c-47.23-9.61-91.23,3.87-131.09,44.96-7.4,7.63-14.42,16.17-21.51,24.52h3.28c6.38-7.24,12.74-14.53,19.34-21.28,20.33-20.82,42.4-35.43,66.5-42.44,17.2-5,34.51-6.12,51.94-4.05,32.89,3.9,62.91,21.75,91.8,44.87,9.09,7.28,17.99,15.13,26.92,22.9h4.91c-19.09-17.11-38.45-33.43-58.94-46.42-17.13-10.86-34.74-19.31-53.14-23.06Z"/>
    <path class="st1" d="M134.47,634.94c14.06-21.26,28.22-42.3,44.72-59.19,16.7-17.08,34.83-28.45,54.79-32.4,25.36-5.02,49.72.96,73.27,15.95,18.87,12.01,36.42,27.84,53.89,43.9,19.01,17.46,37.99,34.96,58.49,48.17,23.2,14.95,47.23,25.2,72.17,30.22,6.5,1.31,13.07,1.74,19.61,2.57v-2.36c-6.52-1.01-13.06-1.84-19.57-3.05-24.74-4.61-48.48-14.92-71.45-29.66-19.63-12.6-37.86-29.2-56.06-45.92-18.27-16.79-36.56-33.5-56.29-46.11-20.95-13.39-42.67-19.67-65.34-17.58-24.43,2.25-46.46,14.99-66.53,36.27-16.24,17.21-30.23,38.33-44.25,59.45-14.19,21.38-28.57,42.47-42.99,63.48-1.56,2.28-3.24,4.37-4.96,6.4h2.72c1.75-2.17,3.47-4.36,5.08-6.72,14.32-20.99,28.59-42.07,42.7-63.4Z"/>
    <path class="st1" d="M455.85,684.7c-26.3-12.79-50.56-32.14-74.23-53.6-17.82-16.15-35.74-32.08-53.98-47.05-15.5-12.73-31.97-22.04-49.39-26.78-39.13-10.65-75.15.79-107.86,35.9-15.38,16.51-29.03,36.09-42.3,56.34-12.18,18.57-24.39,37.09-36.62,55.57h2.53c14.86-22.51,29.64-45.16,44.62-67.48,14.98-22.33,30.95-42.75,49.56-57.78,21.06-17.01,43.49-24.31,67.23-23.5,24.99.85,48.26,11.67,70.11,29.24,19.68,15.82,38.86,33.15,58,50.48,26.74,24.21,54.49,44.68,84.58,57.11,12.72,5.25,25.56,9.42,38.62,11.95h4.68v-2.01c-18.94-3.11-37.41-9.53-55.55-18.35Z"/>
    <path class="st1" d="M72.63,705.07c15.86-13.34,29.77-30.88,42.8-50.21,13.81-20.49,27.19-41.66,41.05-62.08,14.09-20.77,29.38-39.09,47.4-51.37,17.06-11.62,34.92-16.12,53.52-15.07,24.19,1.37,46.16,13.96,67.03,31.48,17.4,14.61,34.37,30.46,51.55,45.7,25.24,22.4,51.99,38.79,80.57,47.9,18.1,5.77,36.37,8.53,54.86,7.55v-2.36c-28.64.97-56.5-5.8-83.7-19.59-23.03-11.68-44.27-28.98-64.97-48.08-16.79-15.49-33.47-31.28-51.35-43.78-13.78-9.64-28.02-17.05-43.11-19.85-30.9-5.75-59.42,4.12-85.3,31.16-14.26,14.9-26.75,32.89-38.99,51.38-13.21,19.94-26.25,40.17-39.85,59.46-10.52,14.92-22.06,27.71-34.74,37.76h3.23Z"/>
    <path class="st1" d="M296.33,617.72c-20.33-8.11-40.94-10.39-61.85-7.81-35.2,4.34-65.95,25.61-93.42,58.67-9.53,11.47-18.54,23.98-27.53,36.48h2.84c5.22-7.18,10.43-14.38,15.78-21.33,15.42-20.04,32-37.38,50.53-50.01,22.47-15.32,46.03-21.82,70.57-21.49,30.1.41,58.03,13.39,84.95,32.91,22.91,16.61,44.47,36.94,66.19,56.84,1.12,1.02,2.23,2.05,3.34,3.08h4.31c-17.24-15.55-34.41-31.29-51.84-46.33-20.23-17.46-41.32-32.01-63.89-41.02Z"/>
    <path class="st1" d="M336.12,605.09c-16.79-14.03-34.56-24.77-53.43-30.38-42.36-12.6-81.59-1.24-117.32,36.64-16.58,17.58-31.28,38.49-45.49,60.26-7.25,11.1-14.49,22.22-21.65,33.46h2.3c3.25-4.81,6.51-9.63,9.69-14.54,14.76-22.76,29.46-45.59,46.04-65.31,19.16-22.8,40.06-40,63.99-47.7,14.55-4.68,29.22-5.65,44-3.95,26.85,3.1,51.41,17.59,74.75,37.07,18.99,15.86,37.54,32.99,56.19,49.8,19.1,17.21,38.72,32.69,59.4,44.64h5.46c-22.64-12.43-43.98-29.15-64.76-47.87-19.61-17.67-39.22-35.42-59.19-52.11Z"/>
    <path class="st1" d="M373.29,651.8c-20.03-17.89-40.26-35.09-62.09-47.44-20.36-11.52-41.35-17.25-63.04-16.87-36.92.64-69.31,20.45-98.33,54.71-16.15,19.07-30.74,40.74-45.07,62.86h2.65c1.63-2.39,3.2-4.72,4.76-7.07,15.03-22.74,30.42-44.81,47.87-63.21,19.5-20.55,40.66-34.92,64.08-40.87,13.86-3.52,27.81-4.12,41.81-2.28,28.36,3.71,54.34,18.99,79.02,39.63,20.11,16.82,39.67,35.21,59.57,52.64,8.29,7.26,16.69,14.19,25.09,21.17h3.69c-.25-.22-.5-.43-.75-.65-19.68-17.74-39.54-34.99-59.27-52.61Z"/>
    <path class="st1" d="M511.4,435.39c-.58,4.33-1.04,8.71-1.76,12.98-3.66,21.56-12.29,37.75-23.71,50.65-15.61,17.63-33.23,28.04-52.31,32.35-37.3,8.43-71.61-5.34-103.86-33.92-12.46-11.04-24.86-22.3-37.6-32.54-10.78-8.67-22.37-13.74-34.67-14.78-17.69-1.5-33.68,5.62-48.21,21-11.67,12.35-21.44,27.95-31.35,43.32-10.51,16.31-21.13,32.41-33.92,44.66-12.87,12.34-26.71,18.83-41.97,17.13-10.89-1.21-21.24-5.65-31.22-12.39-14.5-9.79-28.12-21.74-40.28-37.49C13.74,504.61,3.91,476.79-.09,443.83c-.09-.73-.33-1.43-.5-2.14,0-4.2,0-8.4,0-12.6.76,6.94,1.33,13.94,2.33,20.8,4.95,34.01,16.64,61.3,34.86,82.04,13.93,15.85,28.97,28.47,45.45,36.79,24.04,12.13,46.31,6.62,66.82-16.28,11.53-12.86,21.31-28.58,31.49-43.72,8.14-12.12,16.21-24.56,25.19-35.07,25.02-29.3,52.4-32.22,81.1-14.3,13.07,8.16,24.99,19.7,37.01,30.86,16.03,14.88,32.7,27.46,50.96,34.48,32.09,12.34,63.48,10.46,93.81-11.33,11.15-8.01,21.21-18.51,29.21-33.1,12.89-23.49,15.33-50.34,10.45-79.39-3.12-18.56-8.61-35.53-15.13-51.73-8.91-22.13-18.59-43.36-31.38-60.77-14.22-19.36-30.81-29.7-49.75-31.81-14.73-1.64-29.29.66-43.87,3.02-15.52,2.51-31.05,5.44-46.69,3.23-23.43-3.31-44.59-16.02-63.7-37.05-16.07-17.68-27.96-40.8-37.69-66.97-5.58-15-11.39-29.85-17.69-44.14-11.76-26.66-28.02-43.06-48.89-48.15-9.91-2.42-19.86-2.54-29.84-1.41-9.2,1.04-18.24,3.34-27.03,7.76-18.48,9.29-31.13,28.37-38.04,55.85-4.83,19.23-8.82,39.02-12.53,58.84-5.7,30.42-14.11,59.17-22.14,88.17-7.83,28.3-15.39,56.79-19.87,86.87-1.78,11.96-2.68,24.22-4,36.35-.1.89-.29,1.75-.44,2.62,0-4.72,0-9.45,0-14.17,1.1-8.17,2.07-16.38,3.32-24.49,4.44-28.87,11.52-56.35,18.94-83.64,7.12-26.18,15.15-51.8,20.59-79.01,4.12-20.61,8-41.36,12.49-61.78,3.99-18.17,9.94-34.73,19.43-47.79,9.22-12.7,20.24-19.65,32.15-23.46,13.94-4.46,28.06-5.55,42.22-3.24,22.52,3.68,40.72,19.36,53.61,48.11,6.95,15.5,13.3,31.7,19.36,48.08,12.09,32.68,28.23,58.96,49.72,77.21,21.56,18.3,44.61,26.88,69.23,24.2,14.96-1.63,29.86-4.26,44.81-6.1,18.22-2.24,36.3-1.91,53.58,9.05,14.46,9.18,26.07,24.21,35.87,42.57,12.81,24,24.13,49.56,31.18,78.89,2.39,9.96,3.42,20.71,5.07,31.09.1.61.28,1.19.43,1.79v16.53Z"/>
    <path class="st1" d="M511.4,122.07c-13.16-1.53-26.36-2.55-39.48-4.71-22.21-3.66-43.99-10.96-65.43-20.5-61.51-27.37-116.91-72.54-166.12-135.53-8.12-10.39-15.75-21.69-23.58-32.6-.53-.74-.89-1.78-1.33-2.69,1.54,0,3.07,0,4.61,0,6.13,8.7,12.08,17.73,18.42,26.06,42.1,55.26,89.24,97.21,141.32,126.07,27.63,15.31,55.94,26.54,85.03,32.59,14,2.91,28.16,4.01,42.24,5.94,1.44.2,2.88.43,4.32.65v4.72Z"/>
    <path class="st1" d="M511.4,111.05c-12.44-2.06-24.93-3.68-37.33-6.26-27.29-5.69-53.93-15.89-80-29.46C336.67,45.46,284.72.62,238.27-59.24c-3.63-4.68-7.01-9.8-10.51-14.71,1.71,0,3.41,0,5.12,0,6.43,8.37,12.7,17.07,19.32,25.07,48.99,59.16,103.4,102.17,163.27,128.73,24.42,10.84,49.26,18.58,74.55,22.65,7.12,1.15,14.26,2.03,21.39,3.04v5.51Z"/>
    <path class="st1" d="M208.81-73.95c10.36,15.19,20.3,31.12,31.14,45.43,37.16,49.07,78.8,86.77,124.51,113.83,29.08,17.21,59,29.41,89.87,36.16,18.93,4.14,37.95,6.28,57.07,6.11v4.72c-8.78-.3-17.57-.17-26.33-.99-18.55-1.74-36.93-5.6-55.16-11.36-41.82-13.22-81.38-35.8-118.83-67.2-38.99-32.69-73.95-73.52-104.57-123.04-.68-1.1-1.21-2.44-1.8-3.67,1.37,0,2.73,0,4.1,0Z"/>
    <path class="st1" d="M249.26-73.95c5.48,6.61,10.84,13.47,16.46,19.79,53.17,59.79,111.65,102.29,175.55,127,20.32,7.86,40.9,13.66,61.75,17.06,2.79.46,5.58.98,8.38,1.47v5.51c-9.64-1.79-19.3-3.25-28.9-5.45-28.18-6.44-55.69-17.2-82.63-31.41-57.12-30.12-109.13-74.44-156.06-132.86-.26-.32-.47-.74-.7-1.12,2.05,0,4.1,0,6.14,0Z"/>
    <path class="st1" d="M511.4,143.33c-11.43-.25-22.87-.12-34.29-.83-27.17-1.69-53.86-8.39-80.08-19.35-62.75-26.23-118.34-72.74-166.76-139.47-12.34-17.01-23.83-35.32-34.57-54.73-.48-.87-.82-1.92-1.23-2.89,1.37,0,2.73,0,4.1,0,2.69,4.99,5.24,10.2,8.1,14.95,53.88,89.22,119.31,148.7,195.84,179.52,19.8,7.97,39.9,13.8,60.34,15.7,16.16,1.5,32.37,1.64,48.56,2.39v4.72Z"/>
    <path class="st1" d="M511.4,82.71c-13.02-3.19-26.13-5.68-39.04-9.7-54.68-17.03-106.24-47.1-154.83-89.22-19.24-16.67-37.73-35.11-55.46-55.34-.58-.67-1.04-1.6-1.55-2.4,2.22,0,4.44,0,6.66,0,2.18,2.64,4.28,5.44,6.55,7.89,58.77,63.58,123.14,107.73,193.4,131.16,13.87,4.63,27.98,7.53,41.99,11.2.75.2,1.53.09,2.29.12v6.3Z"/>
    <path class="st1" d="M511.4,152.77c-10.57.3-21.14.88-31.72.85-43.2-.1-84.96-12.45-125.34-35.8-55.18-31.91-103.36-80.28-143.77-146.45-8.21-13.45-15.54-28.18-23.25-42.35-.46-.85-.71-1.98-1.05-2.99,1.02,0,2.05,0,3.07,0,49.82,99.17,114.43,164.96,192.15,201.03,21.23,9.86,42.94,16.17,65.03,19.57,20.59,3.17,41.2,3.28,61.84,2,1.01-.06,2.02-.4,3.03-.61v4.72Z"/>
    <path class="st1" d="M511.4,161.43c-4.76.29-9.53.74-14.29.85-13.72.32-27.46,1.17-41.17.59-32.38-1.38-63.91-10.61-94.61-26.41-56.11-28.88-104.92-75.69-146.06-141.19-13.01-20.71-24.54-43.25-34.96-67.16-.28-.64-.46-1.38-.68-2.07,1.02,0,2.05,0,3.07,0,23.58,54.71,53.49,99.78,88.54,136.92,39.43,41.8,82.61,70.38,129.49,85.64,26.99,8.79,54.31,11.72,81.83,10.43,9.62-.45,19.23-1.54,28.85-2.34v4.72Z"/>
    <path class="st1" d="M288.17-73.95c3.85,4.01,7.64,8.2,11.58,12.01,55.41,53.58,115.03,91.44,179.01,112.88,10.14,3.4,20.4,5.91,30.61,8.8.66.19,1.36.11,2.04.15v6.3c-5.96-1.36-11.96-2.43-17.88-4.13-43.4-12.43-85.22-32.68-125.5-60.45-30.04-20.71-58.7-45.25-85.98-73.6-.55-.58-1.04-1.3-1.56-1.95,2.56,0,5.12,0,7.68,0Z"/>
    <path class="st1" d="M177.07-73.95c8.46,20.64,17.23,40.94,27.37,59.75,32.32,60.01,71.92,105.38,117.89,137.72,28.49,20.04,58.24,33.59,89.29,40.46,22.81,5.05,45.71,5.71,68.66,3.93,10.39-.8,20.75-2.2,31.13-3.33v3.94c-21.67,3.24-43.38,4.86-65.14,3.91-38.88-1.69-76.28-14.3-112.23-36.96-52.56-33.13-97.51-82.45-133.2-150.68-9.37-17.92-17.25-37.68-25.8-56.61-.27-.6-.35-1.41-.52-2.12.85,0,1.71,0,2.56,0Z"/>
    <path class="st1" d="M310.19-73.95c4.4,4.17,8.72,8.53,13.2,12.47,51.09,44.9,105.29,77.59,162.72,97.5,7.63,2.65,15.34,4.81,23.01,7.15.74.23,1.52.13,2.28.18v7.09c-10.43-3.19-20.92-5.92-31.27-9.65-62.65-22.59-121.29-60.18-176.06-112.11-.76-.72-1.39-1.74-2.09-2.62,2.73,0,5.46,0,8.19,0Z"/>
    <path class="st1" d="M511.4,176.39c-10.43,1.54-20.84,3.68-31.3,4.47-15.32,1.16-30.68,2.1-46.01,1.82-34.57-.62-67.91-11.66-100.1-30.78-43.98-26.12-82.39-65.17-114.95-117.7-17.34-27.98-31.34-59.69-44.1-92.81-1.94-5.03-3.71-10.23-5.55-15.34.85,0,1.71,0,2.56,0,5.55,14.1,10.81,28.5,16.71,42.25,44.5,103.72,106.98,168.15,184.77,198.64,28.37,11.12,57.31,14.42,86.49,11.95,16.08-1.36,32.12-3.66,48.18-5.51,1.1-.13,2.21-.09,3.32-.12v3.15Z"/>
    <path class="st1" d="M511.4,184.26c-10.51,1.65-21.02,3.37-31.53,4.93-20.72,3.07-41.46,5.17-62.32,3.97-44.57-2.55-86.22-21.12-125.22-53.92-44.75-37.63-80.55-89.77-106.68-157.32-7.18-18.57-14.26-37.25-21.39-55.88.85,0,1.71,0,2.56,0,11.7,31.21,23.06,62.77,37.07,91.76,26.56,54.93,60.36,96.49,100.03,127.01,25.43,19.56,52.22,32.92,80.29,40.03,17.38,4.4,34.9,5.76,52.5,5.21,20.83-.66,41.53-3.68,62.21-7.18,4.15-.7,8.31-1.17,12.47-1.75v3.15Z"/>
    <path class="st1" d="M333.74-73.95c12.15,9.67,24.14,19.87,36.48,28.9,43.93,32.16,89.77,55.68,137.42,70.85,1.25.4,2.51.68,3.76,1.01v7.09c-8.98-2.96-18.01-5.58-26.92-8.95-55.62-21.02-108.28-53.49-158.08-96.94-.65-.57-1.25-1.3-1.88-1.96,3.07,0,6.14,0,9.22,0Z"/>
    <path class="st1" d="M511.4,191.35c-7.54,1.13-15.09,2.25-22.63,3.4-11.61,1.77-23.2,4.01-34.84,5.21-13.69,1.41-27.42,2.91-41.12,2.66-60.3-1.11-113.8-32.05-161.19-88.74-25.27-30.23-45.57-67.21-61.84-109.52-9.79-25.47-19.53-51-29.28-76.51-.2-.52-.22-1.2-.33-1.8.68,0,1.37,0,2.05,0,13.49,34.44,26.13,69.75,40.65,103.13,26.19,60.23,62.14,103.33,104.66,133.78,22.98,16.46,47.06,27.43,72.15,32.97,19.49,4.3,39.1,5.12,58.69,2.63,23.6-3,47.16-6.77,70.74-10.2.76-.11,1.53-.1,2.3-.15v3.15Z"/>
    <path class="st1" d="M-.6-24.36c9.44-9.32,19.51-16.51,30.37-20.93,19.18-7.8,38.71-10.5,58.51-9.22,15.44,1,30.43,5.14,44.77,14.28,17.67,11.25,31.46,29.9,43.03,52.88,10.21,20.28,18.27,42.64,26.6,64.73,8.21,21.78,16.56,43.43,27.52,62.35,25.57,44.14,57.15,73.06,94.29,87.78,19.16,7.6,38.69,9.63,58.35,7.24,18.18-2.2,36.31-5.28,54.47-7.77,16.92-2.32,33.89-4.07,50.82-.79,7.82,1.51,15.51,4.54,23.26,6.88v1.57c-4.24-1.34-8.46-2.78-12.71-4-13.49-3.89-27.14-5.03-40.76-3.52-21.07,2.33-42.11,5.53-63.13,8.78-36.5,5.64-71.73-.65-105.16-25.18-34.43-25.26-61.59-62.69-80.97-113.41-8.84-23.15-17.67-46.33-27.07-68.95-8.83-21.26-19.74-39.79-33.57-53.87-13.47-13.72-28.42-21.35-44.28-24.63-25.38-5.27-50.51-2.68-75.24,7.7C18.69-38.32,9.47-31.95.96-23.24c-.48.5-1.04.83-1.56,1.24,0-.79,0-1.57,0-2.36Z"/>
    <path class="st1" d="M-.6,681.01c7.9,3.06,15.71,6.94,23.72,9.01,14.99,3.89,29.91,2.59,44.44-4.85,15.57-7.97,29.22-21.14,41.92-36.84,14.81-18.29,27.78-39.56,41.17-60.14,11.9-18.28,24.07-36.04,38.04-50.66,22.13-23.16,46.57-32.69,73.16-29.55,17.84,2.1,34.63,10.37,50.29,23.16,17.28,14.11,34.18,29.37,51.09,44.53,23.24,20.84,47.67,37,74.03,45.86,23.16,7.79,46.51,10.43,70.12,6.1,1.34-.25,2.68-.63,4.01-.94v3.15c-5.01.55-10.01,1.2-15.02,1.65-31.54,2.84-61.9-5.69-91.41-22.42-19.59-11.11-37.62-26.9-55.44-43.35-16.13-14.88-32.24-29.81-49.7-40.9-15.2-9.66-30.95-15.17-47.43-15.3-26.14-.19-49.18,13.26-69.82,37.43-14.17,16.59-26.59,36.07-39.08,55.45-12.61,19.58-25.22,39.15-39.74,55.47-13.1,14.71-27.08,26.78-43.03,32.51-18.91,6.8-37.57,4-56.02-4.27-1.79-.8-3.54-1.83-5.31-2.75,0-.79,0-1.57,0-2.36Z"/>
    <path class="st1" d="M511.4,197.65c-8.58,1.1-17.16,2.06-25.72,3.34-13.14,1.96-26.25,4.65-39.41,6.11-14.7,1.63-29.45,3.12-44.18,3.13-40.61.03-78.55-16.44-114.13-46.07-40.5-33.72-72.24-81.36-95.4-142.6-10.06-26.61-20.37-53-30.63-79.43-2.14-5.5-4.58-10.73-6.88-16.08.85,0,1.71,0,2.56,0,.1.48.13,1.02.3,1.44,10.82,27.58,21.71,55.09,32.47,82.73,9.33,23.97,18.98,47.58,30.99,68.69,24.49,43.01,54.02,75.36,88.03,98.12,21.82,14.6,44.58,24.14,68.23,28.32,16.64,2.94,33.36,3.35,50.05,1.11,23.42-3.15,46.81-6.82,70.21-10.23,4.5-.66,9-1.15,13.5-1.72v3.15Z"/>
    <path class="st1" d="M361.9-73.95c8.8,6.53,17.51,13.4,26.42,19.54,39.01,26.86,79.35,47.6,121.07,61.94.66.23,1.34.27,2.01.39v7.87c-55.09-18.51-107.61-47.98-157.75-87.57-.72-.57-1.33-1.44-1.99-2.17,3.41,0,6.83,0,10.24,0Z"/>
    <path class="st1" d="M511.4,251.96c-4.63-2.89-9.2-6.09-13.91-8.61-15.92-8.52-32.47-11.14-49.14-9.77-18.45,1.52-36.86,4.6-55.27,7.16-16.75,2.33-33.53,4.28-50.32,1.58-33-5.3-62.49-24.19-88.82-55.14-20.17-23.7-34.82-54.25-47.36-87.74-7.77-20.75-15.85-41.33-24.77-60.93-13.05-28.67-30.54-48.61-52.85-57.78-16.34-6.72-32.94-7.84-49.71-6.15-12.36,1.24-24.54,3.96-36.42,9.55C25.65-7.76,11.13,6.29.35,28.79c-.23.48-.62.79-.94,1.17,0-1.05,0-2.1,0-3.15.96-1.62,1.97-3.17,2.88-4.85C13.71.88,28.45-12.13,45.49-19.07c24.97-10.16,50.27-12.26,75.73-5.05,25.42,7.2,45.4,27.83,60.87,59.35,9.38,19.1,16.98,39.88,24.74,60.53,8.37,22.27,17.07,44.21,28.73,62.92,26.81,43.02,59.37,69.56,97.53,79.68,15.12,4.01,30.39,4.12,45.65,2.05,20.71-2.81,41.39-6.51,62.13-8.51,21.56-2.08,42.95.03,63.29,13.07,2.42,1.55,4.83,3.09,7.25,4.63v2.36Z"/>
    <path class="st1" d="M511.4,203.94c-15.2,1.86-30.42,3.54-45.6,5.62-12.56,1.72-25.08,3.9-37.62,5.89-67.61,10.76-128.32-14.7-181.12-81.61-20.64-26.15-36.97-57.85-50.52-93.12-9.83-25.59-19.46-51.37-29.77-76.49-5.48-13.36-12.21-25.5-18.37-38.19.85,0,1.71,0,2.56,0,19.71,36.22,33.34,78.4,49.14,118.45,32.14,81.48,78.66,133.46,138,158.99,23.43,10.08,47.43,13.44,71.66,10.8,20.99-2.28,41.91-5.86,62.88-8.57,12.91-1.67,25.84-2.78,38.77-4.15v2.36Z"/>
    <path class="st1" d="M-.6,644.01c11.08,7.81,22.4,14.45,34.41,18.25,26.78,8.48,51.16-.05,73.68-23.35,15.11-15.63,28.08-34.94,40.83-54.69,13.04-20.21,25.85-40.77,40.87-57.65,14.7-16.51,30.83-27.77,49.01-31.18,18.77-3.52,37.03-.03,54.74,10.38,15.82,9.31,30.43,22.2,44.91,35.49,16.52,15.16,32.96,30.51,50.88,41.68,25.79,16.07,52.54,24.69,80.39,24.69,14.28,0,28.39-2.64,42.29-7.71v2.36c-13.67,4.81-27.5,7.52-41.53,7.53-37.33.04-72.24-14.61-104.86-42.07-15.75-13.26-31.06-27.78-46.71-41.34-13.46-11.67-27.48-21.49-42.7-26.43-31.76-10.32-60.65-.42-86.69,29.43-13.81,15.83-25.78,34.71-37.84,53.44-12.31,19.11-24.65,38.18-39.05,53.69-12.59,13.56-26.01,24.39-41.32,28.71-17.44,4.92-34.48,1.73-51.15-6.71-6.85-3.47-13.45-8.07-20.16-12.16,0-.79,0-1.57,0-2.36Z"/>
    <path class="st1" d="M-.6,97.67c2.21-8.2,4.27-16.49,6.65-24.57C13.4,48.2,24.11,27.89,40.02,14.7,50.95,5.64,62.71.57,74.9-2.2c13.19-3,26.43-3.98,39.78-2.62,30.45,3.09,55.43,22.02,73.03,60.83,9.09,20.04,17.02,41.36,25.23,62.33,8.11,20.73,16.78,40.76,28.19,57.64,24.31,35.96,53.01,58.66,86.3,67.49,15.59,4.13,31.24,3.63,46.92,1.75,22.59-2.71,45.03-8.52,67.78-8.13,19.67.34,38.68,5.2,56.01,20.51,4.57,4.04,8.85,8.82,13.27,13.26v2.36c-9.27-10.6-19.14-19.51-30.16-25.18-14.25-7.33-28.99-9.95-43.86-8.82-16.75,1.27-33.47,3.87-50.19,6.19-17.34,2.41-34.69,4.81-52.08,1.68-28.34-5.1-53.95-21.01-77.09-46.6-19.69-21.77-34.51-49.95-46.53-82.06-7-18.72-14.18-37.33-21.93-55.34-9.04-21.03-20.46-38.58-35.32-50.14-11.54-8.98-23.87-13.63-36.71-15.44-19.1-2.7-37.98-.57-56.57,6.6C34.66,14.26,16.47,39.02,6.07,77.41c-1.99,7.36-3.74,14.88-5.62,22.32-.3,1.18-.69,2.3-1.04,3.44,0-1.84,0-3.67,0-5.51Z"/>
    <path class="st1" d="M-.6,200.79c2.04-8.97,4.22-17.88,6.09-26.94,4.87-23.55,9.3-47.33,14.48-70.71,3.96-17.85,9.95-34.19,18.56-47.94,10.78-17.2,24.22-26.84,39.11-32.04,16.67-5.81,33.57-7.29,50.58-4.86,28.65,4.09,51.03,24.7,66.81,61.58,7.72,18.04,14.87,36.67,21.92,55.36,11.97,31.73,27.4,58.34,47.47,78.42,20.32,20.34,42.42,33.01,66.61,36.92,12.88,2.08,25.72,1.11,38.56-.63,19.52-2.63,38.94-7.28,58.61-7.08,18.01.18,35.45,4.38,51.54,17.8,10.75,8.97,20.06,20.73,28.42,34.38,1.04,1.7,2.16,3.29,3.24,4.93v2.36c-.86-1.19-1.8-2.28-2.57-3.59-12.51-21.04-26.97-37.67-44.84-46.43-12.48-6.12-25.36-8.45-38.36-7.47-14.97,1.12-29.92,3.18-44.85,5.3-17.76,2.52-35.52,5.26-53.34,1.64-24.77-5.04-47.31-18.95-67.78-40.93-18.97-20.37-33.32-46.92-44.82-77.55-7.03-18.7-14.2-37.35-22.09-55.2-15.2-34.42-36.54-53.57-63.57-57.8-18.6-2.91-36.96-1.04-55.05,6.02-23.82,9.3-40.43,31.66-50.24,66.28-5.8,20.47-9.56,41.95-13.76,63.23-3.06,15.52-6.38,30.92-9.62,46.35-.25,1.17-.74,2.22-1.12,3.33,0-1.57,0-3.15,0-4.72Z"/>
    <path class="st1" d="M141.74-73.95c1.65,2.43,3.28,4.88,4.94,7.29,13.15,19.06,23.44,41.54,32.72,65.17,10,25.44,19.22,51.66,29.87,76.42,31.48,73.17,75.99,117.86,131.07,138.47,20.62,7.72,41.63,9.61,62.73,7.15,20.22-2.36,40.39-5.67,60.58-8.56,15.89-2.27,31.79-3.96,47.76-3.32v2.36c-13.29.8-26.6,1.14-39.86,2.55-12.23,1.3-24.42,3.69-36.62,5.7-22.5,3.7-45.05,6.62-67.65,3.33-42.29-6.16-80.06-30.11-113.7-69.82-23.44-27.68-41.36-62.46-56.09-101.55-9.09-24.14-18.38-48.12-28.08-71.68-8.01-19.46-17.76-36.86-29.3-51.73-.37-.48-.62-1.17-.93-1.76.85,0,1.71,0,2.56,0Z"/>
    <path class="st1" d="M119.21-73.95c2.46,1.74,4.92,3.46,7.37,5.22,18,12.87,31.99,33.03,43.84,57.08,10.53,21.36,18.98,44.73,27.69,67.85,8.72,23.14,17.56,46.18,29.1,66.38,28,48.99,62.77,80.98,103.78,97.07,22.45,8.81,45.29,10.4,68.27,7.3,19.52-2.64,39-5.99,58.51-8.59,16.83-2.25,33.7-3.16,50.57-.35,1.01.17,2.04.08,3.06.11v2.36c-7.66-.57-15.31-1.42-22.97-1.67-15.97-.51-31.84,1.91-47.7,4.47-22.03,3.56-44.04,8.08-66.26,7.31-50.33-1.75-94.06-29.38-131.77-80.29-17.92-24.2-31.15-53.93-43.13-85.27-8.97-23.47-17.97-46.99-27.84-69.56-11.18-25.54-25.38-46.6-43.61-60.36-4.41-3.33-9.01-6.05-13.52-9.05,1.54,0,3.07,0,4.61,0Z"/>
    <path class="st1" d="M-.6,283.45c2.73-9.56,5.33-19.2,8.21-28.66,10.96-36.05,18.4-73.97,25.69-112.02,2.58-13.49,5.98-26.76,9.89-39.48,8.51-27.71,22.74-45.79,41.86-54.22,20.8-9.16,41.96-10.91,63.25-4.76,20.79,6.01,37.2,23.09,49.13,49.6,7.74,17.2,14.82,35.19,21.53,53.41,17.28,46.89,42.22,79.57,75.14,97.93,19.42,10.83,39.46,13.26,59.93,10.97,20.99-2.35,41.81-7.96,62.95-7.36,20.04.57,38.78,7.6,55.24,26.1,10.92,12.27,19.99,27.33,27.97,43.99,3.83,8,7.48,16.21,11.21,24.33v3.15c-5.67-12.12-11.03-24.61-17.08-36.27-11.93-23.01-26.17-41.65-44.59-51.46-14.58-7.76-29.68-9.49-44.91-7.79-17.42,1.94-34.78,5.49-52.21,7.02-56.34,4.95-100.56-27.87-131.18-101.6-7.47-17.99-14.17-36.73-21.66-54.7-6.63-15.91-14.95-29.62-25.41-39.89-11.01-10.81-23.23-16.21-36.08-18.17-17.37-2.65-34.58-.74-51.46,6.3-22.56,9.42-37.79,31.63-45.93,64.87-4.94,20.16-9.05,40.85-12.93,61.57-5.97,31.95-14.66,62.21-23.19,92.61-1.74,6.19-3.58,12.32-5.38,18.47,0-1.31,0-2.62,0-3.94Z"/>
    <path class="st1" d="M511.4,576.31c-6.38,2.75-12.7,5.84-19.14,8.17-17.15,6.21-34.55,7.54-52.08,5.45-34.43-4.1-65.72-22.29-95.18-49.26-14.48-13.25-29.11-26.19-44.11-37.96-17.19-13.5-35.62-19.75-55.1-17.82-18.19,1.8-34.48,11.39-49.33,27.29-13.52,14.47-25.05,32.37-36.57,50.28-11.64,18.09-23.2,36.32-36.66,51.33-11.89,13.26-24.61,23.99-39.17,28.51-16.62,5.16-32.92,2.16-48.91-5.69-12.53-6.15-24.27-15.13-35.76-24.87v-2.36c17.11,14.91,34.79,27.56,54.49,32.04,21,4.78,40.43-1.8,58.5-18.8,13.26-12.47,24.77-28.19,35.82-44.82,11.52-17.33,22.83-35.02,34.74-51.7,12.92-18.09,27.59-32.03,44.77-38.71,23.06-8.97,45.43-5.02,67.23,8.98,15.45,9.93,29.72,23.23,44.01,36.47,17.38,16.1,35.16,30.9,54.57,40.6,20.33,10.16,41.14,15.63,62.53,15.38,18.97-.23,37.44-5.15,55.34-14.87v2.36Z"/>
    <path class="st1" d="M392.62-73.95c6.26,4.31,12.47,8.83,18.79,12.89,32.29,20.73,65.47,37.36,99.48,50.03.16.06.34.04.51.06V-3.1c-9.87-3.93-19.79-7.55-29.6-11.83-34.33-15.01-67.6-34.46-99.94-57.64-.53-.38-1.02-.92-1.53-1.38,4.1,0,8.19,0,12.29,0Z"/>
    <path class="st1" d="M511.4,546.39c-4.11,2.77-8.19,5.66-12.34,8.29-22.9,14.51-46.76,19.23-71.35,16.44-33.82-3.83-64.3-22.44-92.92-49.5-13.7-12.95-27.46-25.82-42.35-35.47-11.63-7.54-23.65-12.29-36.34-13.03-21.85-1.27-41.22,9-58.62,28.95-12.51,14.33-23.25,31.58-34.19,48.51-11.13,17.22-22.36,34.27-35.61,47.72-10.46,10.61-21.56,18.96-34.08,22.11-14.7,3.71-29.07,1.11-43.09-6-17.58-8.92-33.76-22.22-48.97-38.37-.7-.74-1.42-1.4-2.14-2.1,0-.79,0-1.57,0-2.36,15.97,17.48,33.02,31.89,51.69,41.26,16.78,8.42,33.87,10.73,51.03,2.7,13.99-6.54,26.36-18.03,37.12-32.96,12.9-17.91,25.17-36.9,37.68-55.48,9.46-14.06,19.28-27.46,30.8-37.48,25.27-22,51.6-23.51,78.62-8.99,14.22,7.64,27.16,19.32,40.03,31.14,15.64,14.36,31.21,28.88,48.33,38.92,23.11,13.56,46.98,20.52,71.74,19.17,22.06-1.21,43.12-8.9,62.89-24.31.68-.53,1.38-1.01,2.07-1.52v2.36Z"/>
    <path class="st1" d="M511.4,507.82c-1.76,2.03-3.5,4.08-5.28,6.08-17.11,19.27-36.32,30.85-57.19,35.56-39.61,8.93-76.26-5.01-110.69-35.05-13.1-11.43-26.02-23.4-39.27-34.4-11.21-9.3-23.14-15.83-35.94-18.01-20.25-3.45-38.91,2.98-55.96,20.36-11.67,11.9-21.59,26.85-31.38,42.04-10.33,16.01-20.48,32.33-32.3,45.87-10.33,11.84-21.38,21.52-34.13,25.71-16.08,5.28-31.76,2.05-46.91-6.86-22.34-13.12-42.8-31.04-59.64-57.71-1.13-1.79-2.2-3.65-3.3-5.48,0-.79,0-1.57,0-2.36,17.31,30.07,39.11,49.79,63.18,63.94,16.43,9.66,33.36,12.84,50.59,5.27,12.74-5.59,24.03-15.76,33.83-29.17,11.39-15.58,22.22-32.16,33.17-48.5,9.26-13.81,18.64-27.37,29.82-37.5,24.2-21.94,49.47-23.34,75.45-8.68,13.74,7.75,26.23,19.34,38.7,30.9,15.11,14,30.4,27.39,47.19,36.19,19.87,10.41,40.28,15.73,61.28,14.17,26.97-2,51.92-13.53,73.79-38.69,1.7-1.95,3.34-4.03,5.01-6.05v2.36Z"/>
    <path class="st1" d="M424.88-73.95c7.66,4.64,15.26,9.5,22.98,13.86,20.6,11.64,41.56,21.52,62.78,30.11.24.1.51.07.76.11v8.66c-12.88-5.75-25.93-10.73-38.59-17.44-20.05-10.63-39.85-22.41-59.74-33.73-.7-.4-1.35-1.05-2.02-1.58,4.61,0,9.22,0,13.82,0Z"/>
    <path class="st1" d="M511.4-43.25c-19.55-9.7-39.1-19.39-58.64-29.11-.79-.39-1.52-1.06-2.28-1.6,5.46,0,10.92,0,16.38,0,4.3,2.36,8.56,4.92,12.91,7.04,10.52,5.11,21.09,10.02,31.63,15v8.66Z"/>
    <path class="st1" d="M511.4-62.93c-5.06-2.17-10.13-4.25-15.16-6.56-2.83-1.3-5.59-2.97-8.39-4.47,7.85,0,15.7,0,23.55,0v11.02Z"/>
    <path class="st1" d="M7.6-73.95c-2.73,1.57-5.46,3.15-8.19,4.72v-4.72H7.6Z"/>
    <path class="st1" d="M140.57,85.19c15.14.29,25.77,2.1,35.96,7.98,13.26,7.65,23.43,21.36,31.21,39.12,6.04,13.78,11.63,28.07,16.96,42.53,14.22,38.62,34.67,65.89,61.69,81.49,16.4,9.47,33.37,12.28,50.75,10.05,15.79-2.02,31.56-4.7,47.38-5.97,19.63-1.58,38.14,4.27,54.23,23.07,9.19,10.75,16.79,23.79,23.5,38.12,9.54,20.36,18.32,41.39,23.29,65.57,5.08,24.71,5,48.76-4.41,71.35-5.69,13.66-13.55,23.83-22.52,32.03-17.12,15.66-35.73,23.51-55.6,24.39-28.74,1.27-55.09-11.08-79.79-33.04-11.93-10.61-23.89-21.2-36.12-30.97-9.43-7.54-19.68-11.53-30.38-12.34-18.4-1.4-34.67,7.41-48.66,25.39-8.23,10.57-15.87,22.26-23.56,33.79-8.37,12.55-16.64,25.2-26.18,35.76-18.51,20.5-38.67,25.85-60.32,15.11-20.19-10.02-38.42-25.68-53.59-48.81-12.78-19.49-19.82-43.56-22.47-70.74-3.18-32.58.77-63.98,7.54-94.61,4.51-20.4,9.51-40.63,15.18-60.33,9.37-32.61,17.25-65.95,23.45-100.29,1.97-10.91,4.67-21.59,7.61-32,8.11-28.72,22.61-45.74,42.36-51.86,8.81-2.74,17.85-3.81,22.51-4.77ZM398.41,513.96c5.6-.71,11.23-1.12,16.8-2.17,16.64-3.14,32.12-11.44,46.18-25.57,24.01-24.12,31.82-58.16,22.98-100.04-4.79-22.71-13.03-42.56-21.92-61.84-6.69-14.51-14.26-27.77-23.41-38.79-17.19-20.7-37.12-25.77-58.15-23.68-15.39,1.52-30.73,4.08-46.09,6.07-12.33,1.59-24.55.21-36.52-4.61-31.85-12.84-56.36-40.73-73.08-84.62-5.9-15.48-11.8-30.99-18.31-45.86-9.8-22.39-23.21-37.44-40.66-42.89-18.39-5.73-36.65-4.13-54.59,3.97-15.04,6.79-26.46,20.97-33.31,42.79-3.42,10.91-6.51,22.26-8.64,33.9-6.64,36.2-14.85,71.41-24.66,105.88-6.06,21.28-11.33,43.17-16.07,65.24-6.16,28.74-9.13,58.32-5.99,88.64,2.59,25.05,8.98,47.58,20.51,65.94,15.98,25.45,35.54,42.19,57.44,52.15,19.13,8.69,37.21,4.06,53.91-13.03,8.21-8.4,15.52-18.39,22.6-28.86,9.52-14.09,18.77-28.68,28.71-42.03,13.7-18.38,29.81-28.03,48.22-27.5,11.42.33,22.39,4.21,32.48,12.18,12.18,9.62,24.08,20.09,35.92,30.7,23.4,20.98,48.33,33.44,75.65,34.04Z"/>
    <path class="st1" d="M378.48,494.77c-18.84-.16-41.06-10.83-61.88-29.29-10.76-9.54-21.48-19.24-32.53-27.92-11.91-9.35-24.71-13.14-38.13-10.8-12,2.1-22.81,9.09-31.94,20.99-8.83,11.52-16.89,24.4-25.47,36.4-6.74,9.43-13.4,19.12-20.69,27.45-17.17,19.6-36.15,23.03-56.16,12.01-17.85-9.83-34.11-23.88-47.24-45.32-10.48-17.12-16.22-37.87-18.44-60.98-2.9-30.23,1.09-59.22,7.47-87.51,4.2-18.63,8.92-37.04,14.11-55.06,8.08-28.04,14.47-56.92,19.99-86.35,2.09-11.12,4.89-22.04,8.12-32.51,6.25-20.25,16.76-33.52,30.7-39.81,16.45-7.42,33.19-8.83,50.01-3.26,16.42,5.43,28.54,20.47,37.52,41.68,5.89,13.93,11.17,28.48,16.87,42.61,16.62,41.17,40.89,64.98,71.63,73.55,10.64,2.97,21.4,2.09,32.13.6,12.73-1.77,25.44-4.02,38.2-4.89,25.92-1.78,46.91,13.56,62.94,44.96,10.62,20.8,20.26,42.51,25.72,67.88,5.07,23.56,4.79,46.43-4.86,67.49-6.18,13.5-14.63,22.94-24.05,30.44-15.27,12.14-31.56,17.73-54.02,17.65ZM156.64,110.97l-.1-1.07c-8.16,1.69-16.42,2.71-24.47,5.2-17.35,5.37-30.01,20.41-37.11,45.63-2.46,8.73-4.7,17.69-6.41,26.83-5.41,29.06-11.54,57.65-19.56,85.32-5.11,17.66-9.79,35.66-14,53.87-6.4,27.68-10.64,56.05-8.52,85.8,1.85,25.94,8.12,48.87,20.19,67.5,12.99,20.05,28.71,33.5,45.95,42.72,19.31,10.32,37.5,6.7,54.37-11.52,8.92-9.63,16.57-21.38,24.36-32.96,7.41-11.02,14.79-22.17,22.74-32.22,9.81-12.4,21.3-19.48,34.09-20.88,12.97-1.42,25.33,2.44,36.8,11.63,10.78,8.64,21.29,18.11,31.84,27.43,23.44,20.71,48.4,31.76,75.64,28.66,16.84-1.92,32.56-9.26,46.85-23.29,7.64-7.51,14.23-16.73,18.8-28.94,7.52-20.11,7.06-41.08,2.3-62.19-5.99-26.63-16.13-49.56-27.83-70.9-15.06-27.47-34.35-41.25-57.76-39.77-14.2.9-28.37,3.15-42.54,4.98-10.66,1.38-21.33,1.83-31.85-1.39-30.44-9.33-54.35-33.54-70.69-74.55-5.21-13.06-10.05-26.47-15.44-39.35-7.13-17.06-16.09-31.19-28.66-38.89-9.32-5.7-19.03-7.81-28.99-7.63Z"/>
    <path class="st1" d="M116.67,160.19c-.03.51.05,1.14-.11,1.5-6.89,14.74-10.27,31.78-13.23,48.98-4.94,28.69-12.68,55.7-20.21,82.87-6.04,21.78-11.44,43.91-14.33,67.28-3.78,30.54-2.47,59.95,8.43,87.15,6.05,15.1,14.62,26.16,24.24,35.46,10.05,9.72,20.59,17.88,32.27,21.97,16.18,5.67,30.89.15,43.74-15.42,7.94-9.63,15.07-20.83,22.57-31.32,6.24-8.73,12.09-18.25,18.81-26.01,19.26-22.27,40.21-23.84,61.65-8.57,9.93,7.07,19.3,16.04,28.79,24.52,13.5,12.07,27.72,21.14,43.18,25,25.12,6.27,48.88,1.07,70.37-21.11,9.63-9.94,16.73-23.05,19.2-41.05,1.94-14.16.69-27.98-2.78-41.19-8.1-30.83-19.59-58.13-36.72-79.01-9.71-11.83-21.1-17-33.39-18.1-11.64-1.04-23.15.96-34.67,2.94-17.28,2.98-34.48,4.1-51.31-4.76-23.89-12.58-41.68-36.02-54.02-69.87-4.94-13.55-10.38-26.82-16.45-39.22-8.56-17.49-20.56-26.6-34.65-29.19-14.76-2.72-29.29-1.36-43.19,7.25-4.04,2.5-7.61,6.79-11.4,10.23-.63.57-1.3,1-1.95,1.5,6.34-9.6,14.19-14.66,22.69-17.59,13.03-4.48,26.15-5.32,39.29-1.2,15.15,4.76,26.35,18.36,34.61,37.91,5.14,12.18,9.82,24.83,14.74,37.23,14.76,37.21,36.45,58.89,64.05,66.97,10.04,2.94,20.2,2.05,30.33.69,11.7-1.57,23.41-3.54,35.14-4.26,22.1-1.35,40.11,11.9,54.05,38.17,10.34,19.47,19.5,40.1,24.56,64.3,5.01,23.93,3.49,46.26-7.71,65.77-5.38,9.37-11.97,16.32-19.18,21.88-16.65,12.86-34.3,17.17-52.78,14.64-19.46-2.66-37.11-13.1-53.81-28.24-9.22-8.36-18.44-17-28.18-23.72-23.99-16.55-46.16-10.89-65.8,16.01-6.68,9.15-12.72,19.4-19.36,28.63-6.37,8.86-12.79,17.79-19.79,25.38-13.15,14.26-27.87,17.77-43.31,10.83-19.23-8.64-36.29-23.26-49.59-46.74-8.13-14.36-12.57-31.57-14.43-50.33-2.8-28.12.94-55.04,7.03-81.24,4.52-19.42,9.61-38.56,15-57.45,6.62-23.18,11.2-47.35,15.89-71.51,2.22-11.42,4.93-22.56,9.16-32.66.78-1.85,1.72-3.55,2.59-5.31Z"/>
    <path class="st1" d="M132.54,186.96c0,.39.08.86-.03,1.16-6.2,17.09-8.33,36.39-12.59,54.52-4.85,20.62-10.54,40.77-15.84,61.13-4.74,18.21-9.02,36.62-11.09,56.12-2.75,26-.76,50.58,8.58,73.17-.48-.62-1.11-1.09-1.42-1.87-7.14-17.89-9.82-37.4-8.85-58.2,1.31-28.22,7.66-54.28,14.99-79.76,7.65-26.56,13.89-53.82,19.18-81.68,1.62-8.52,4.66-16.41,7.05-24.58Z"/>
    <path class="st1" d="M379.6,290.56c-.63-.29-1.32-.39-1.87-.88-10.32-9.21-21.61-11.51-33.23-10.45-12.56,1.14-25.08,3.43-37.65,4.42-16.16,1.27-31.08-5.52-44.87-18.36-.41-.38-.72-1.03-1.08-1.55.76.49,1.56.86,2.27,1.5,15.86,14.45,32.96,19.55,51.25,16.92,12.12-1.75,24.27-3.4,36.43-3.97,9.26-.43,18.26,2.81,26.45,10,.8.7,1.54,1.59,2.3,2.39Z"/>
    <path class="st1" d="M301.44,431.39c1.96,1.51,3.94,2.96,5.87,4.55,16.88,13.91,34.84,20.87,54.01,19.02,14.71-1.41,28.36-8.06,40.45-21.44.53-.58,1.18-.9,1.77-1.33-3.28,3.42-6.38,7.36-9.88,10.16-13.82,11.07-28.57,15.26-44.13,13.67-16.96-1.74-32.51-9.99-47.08-23.1-.4-.36-.69-1.01-1.03-1.53Z"/>
    <path class="st1" d="M125.58,466.07c.85.47,1.75.81,2.55,1.44,7.5,5.9,15.09,11.31,23.48,13.74,10.2,2.95,19.78.8,28.9-6.73.72-.6,1.54-.93,2.31-1.38-4.48,5.19-9.64,7.99-15.08,9.43-12.14,3.19-23.38-1.63-34.18-9.74-2.73-2.05-5.33-4.49-7.98-6.75Z"/>
    <path class="st1" d="M232.85,409.86c.83-.92,1.58-2.14,2.51-2.71,12.06-7.35,24.25-7.3,36.3-.35,5.27,3.04,10.19,7.48,15.28,11.29-1.08-.64-2.22-1.12-3.24-1.95-6.87-5.58-13.92-10.41-21.67-12.25-10.09-2.41-19.86-.72-29.17,5.97Z"/>
    <path class="st1" d="M203.48,163.82c-3.47-1.58-6.89-3.61-10.42-4.67-15.47-4.63-30.59-2.96-45.19,6.66.77-.87,1.46-2.01,2.31-2.57,6.46-4.31,13.31-6.24,20.27-7.01,9.72-1.08,19.39-.72,28.71,4.48,1.49.83,2.89,2.07,4.33,3.12Z"/>
    <path class="st1" d="M414.11,413.8c1.03-4.93,2.37-9.77,3.03-14.82,1.91-14.39-.08-28.09-3.84-41.28-1.4-4.91-3.05-9.64-4.59-14.45.54.87,1.24,1.62,1.61,2.64,4.35,12.23,7.68,25.04,8.2,39.12.38,10.19-.7,20-4.41,28.79Z"/>
    <path class="st1" d="M230.09,208.7c-.42-.54-.96-.96-1.24-1.64-2.37-5.75-4.68-11.54-7.02-17.32.49.58,1.15,1.01,1.46,1.76,2.31,5.69,4.54,11.45,6.8,17.19Z"/>
    <path class="st1" d="M103.56,438.51c.92,1.21,1.89,2.34,2.75,3.65,2.29,3.5,4.54,7.07,6.8,10.62-3.18-4.76-6.37-9.51-9.55-14.27Z"/>
    <path class="st1" d="M290.08,421.18c3.82,3.44,7.64,6.89,11.46,10.33-3.82-3.44-7.64-6.89-11.46-10.33Z"/>
    <path class="st1" d="M113.02,452.65c3.53,3.7,7.05,7.4,10.58,11.1-3.53-3.7-7.05-7.4-10.58-11.1Z"/>
    <path class="st1" d="M219.34,183.51c-2.72-3.96-5.43-7.93-8.15-11.89,2.72,3.96,5.43,7.93,8.15,11.89Z"/>
    <path class="st1" d="M251.09,251.99c-2.32-3.55-4.65-7.09-6.97-10.64,2.32,3.55,4.65,7.09,6.97,10.64Z"/>
    <path class="st1" d="M354,290.56c-3.96-1.39-7.88-3.52-11.88-3.99-6.18-.72-12.42-.74-18.62-.25-9.27.73-18.5,2.64-27.76,3.16-7.61.43-15.05-2.1-22.22-6.16-.65-.37-1.18-1.25-1.76-1.89,11.82,7.18,24.03,8.09,36.57,6.25,10.46-1.53,21.01-2.48,31.51-2.34,4.73.06,9.44,3.38,14.16,5.21Z"/>
    <path class="st1" d="M309.06,425.12c4.47,1.9,8.9,4.06,13.42,5.65,14.96,5.25,29.63,3.78,43.94-5.01.53-.33,1.13-.42,1.69-.62-5.01,2.58-9.91,6.03-15.06,7.57-14.69,4.4-29.05,1.54-43-6.57-.36-.21-.66-.67-.99-1.01Z"/>
    <path class="st1" d="M211.16,188.23c-3.42-1.4-6.8-3.2-10.28-4.12-11.42-3.03-22.64-1.69-33.56,4.54.4-.57.74-1.43,1.21-1.66,13.79-6.55,27.58-7.74,41.36.04.46.26.85.79,1.27,1.19Z"/>
    <path class="st1" d="M120.76,336.53c-.73,6.13-1.47,12.25-2.17,18.38-1.47,12.77-1.2,25.45.91,38.02-.29-.69-.74-1.33-.85-2.08-2.8-18.42-1.59-36.49,2.11-54.32Z"/>
    <path class="st1" d="M158.54,451.89c3.85,1.37,7.68,2.95,11.56,4.07,6.32,1.84,12.45.41,18.4-3.25.69-.42,1.45-.55,2.18-.81-10.71,8.21-21.42,7.13-32.13-.01Z"/>
    <path class="st1" d="M238.48,394.11c.26-.44.46-1.11.79-1.29,9.75-5.42,19.49-5.64,29.23.08-2.57-.81-5.12-1.73-7.71-2.39-7.64-1.96-15.09-.76-22.31,3.6Z"/>
    <path class="st1" d="M207.24,433.26c5.06-7.84,10.12-15.68,15.19-23.49.2-.31.62-.27.93-.4-4.77,7.28-9.53,14.57-14.32,21.82-.53.8-1.2,1.39-1.8,2.07Z"/>
    <path class="st1" d="M391.58,387.83c1.22-11.08-.18-21.78-2.05-32.4,2.88,10.47,4.17,21.18,2.05,32.4Z"/>
    <path class="st1" d="M296.29,415.68c3.54,2.64,7.07,5.28,10.61,7.93-3.54-2.64-7.07-5.28-10.61-7.93Z"/>
    <path class="st1" d="M252.37,263.99c-2.58-4.13-5.16-8.25-7.74-12.38,2.58,4.13,5.16,8.25,7.74,12.38Z"/>
    <path class="st1" d="M147.39,223.17c-1.21,6.07-2.41,12.15-3.62,18.22,1.21-6.07,2.41-12.15,3.62-18.22Z"/>
    <path class="st1" d="M146.79,443.23c3.19,2.38,6.39,4.76,9.58,7.14-3.19-2.38-6.39-4.76-9.58-7.14Z"/>
    <path class="st1" d="M333.85,410.25c-7.36,2.32-15.43,2.12-22.41,0h22.41Z"/>
    <path class="st1" d="M209.45,210.03h-13.47c0-.18,0-.35,0-.53h13.54c-.02.18-.05.35-.07.53Z"/>
    <path class="st1" d="M281.97,294.62h13.92c0,.12,0,.24,0,.35h-13.9c0-.12-.02-.24-.03-.35Z"/>
    <path class="st1" d="M245.84,376.28c3.28-.56,6.56-1.12,9.85-1.68.02.2.03.41.05.61-3.28.56-6.56,1.12-9.85,1.68-.02-.2-.03-.41-.05-.61Z"/>
  </g>
</svg>